{
	"patcher" : 	{
		"fileversion" : 1,
		"appversion" : 		{
			"major" : 8,
			"minor" : 5,
			"revision" : 0,
			"architecture" : "x64",
			"modernui" : 1
		}
,
		"classnamespace" : "box",
		"rect" : [ 2684.0, 212.0, 2431.0, 1180.0 ],
		"bglocked" : 0,
		"openinpresentation" : 0,
		"default_fontsize" : 12.0,
		"default_fontface" : 0,
		"default_fontname" : "Arial",
		"gridonopen" : 1,
		"gridsize" : [ 15.0, 15.0 ],
		"gridsnaponopen" : 1,
		"objectsnaponopen" : 1,
		"statusbarvisible" : 2,
		"toolbarvisible" : 1,
		"lefttoolbarpinned" : 0,
		"toptoolbarpinned" : 0,
		"righttoolbarpinned" : 0,
		"bottomtoolbarpinned" : 0,
		"toolbars_unpinned_last_save" : 0,
		"tallnewobj" : 0,
		"boxanimatetime" : 200,
		"enablehscroll" : 1,
		"enablevscroll" : 1,
		"devicewidth" : 0.0,
		"description" : "",
		"digest" : "",
		"tags" : "",
		"style" : "",
		"subpatcher_template" : "",
		"assistshowspatchername" : 0,
		"boxes" : [ 			{
				"box" : 				{
					"fontname" : "Times New Roman",
					"fontsize" : 36.344394683837891,
					"id" : "obj-9",
					"linecount" : 12,
					"maxclass" : "comment",
					"numinlets" : 1,
					"numoutlets" : 0,
					"patching_rect" : [ 1406.0, 416.0, 450.0, 550.0 ],
					"presentation" : 1,
					"presentation_linecount" : 11,
					"presentation_rect" : [ 1386.0, 425.259999999999991, 671.0, 508.0 ],
					"text" : "Theory Stuff:\n\n- Notes and Letters\n- Intervals: H, W, m3, M3, M4, M5, 8va, etc\n- Major Scale\n- Minor Scale\n- Major Chord\n- Minor Chord\n- \"In the key of C Major\"\n- IV chord, vi chord, etc\n- Chord Progression\n"
				}

			}
, 			{
				"box" : 				{
					"fontsize" : 36.0,
					"id" : "obj-108",
					"maxclass" : "comment",
					"numinlets" : 1,
					"numoutlets" : 0,
					"patching_rect" : [ 416.0, 571.0, 47.0, 48.0 ],
					"presentation" : 1,
					"presentation_rect" : [ 2312.0, 257.0, 47.0, 48.0 ],
					"text" : "C",
					"textcolor" : [ 0.870588235294118, 0.023529411764706, 0.023529411764706, 1.0 ],
					"textjustification" : 1
				}

			}
, 			{
				"box" : 				{
					"fontsize" : 20.0,
					"id" : "obj-96",
					"linecount" : 2,
					"maxclass" : "comment",
					"numinlets" : 1,
					"numoutlets" : 0,
					"patching_rect" : [ 732.0, 443.0, 57.0, 52.0 ],
					"presentation" : 1,
					"presentation_linecount" : 2,
					"presentation_rect" : [ 2177.0, 102.0, 57.0, 52.0 ],
					"text" : "A#/\nBb",
					"textcolor" : [ 0.870588235294118, 0.023529411764706, 0.023529411764706, 1.0 ],
					"textjustification" : 1
				}

			}
, 			{
				"box" : 				{
					"fontsize" : 20.0,
					"id" : "obj-97",
					"linecount" : 2,
					"maxclass" : "comment",
					"numinlets" : 1,
					"numoutlets" : 0,
					"patching_rect" : [ 671.0, 443.0, 57.0, 52.0 ],
					"presentation" : 1,
					"presentation_linecount" : 2,
					"presentation_rect" : [ 2094.0, 102.0, 57.0, 52.0 ],
					"text" : "G#/\nAb",
					"textcolor" : [ 0.870588235294118, 0.023529411764706, 0.023529411764706, 1.0 ],
					"textjustification" : 1
				}

			}
, 			{
				"box" : 				{
					"fontsize" : 20.0,
					"id" : "obj-98",
					"linecount" : 2,
					"maxclass" : "comment",
					"numinlets" : 1,
					"numoutlets" : 0,
					"patching_rect" : [ 609.0, 443.0, 57.0, 52.0 ],
					"presentation" : 1,
					"presentation_linecount" : 2,
					"presentation_rect" : [ 2015.0, 102.0, 57.0, 52.0 ],
					"text" : "F#/\nGb",
					"textcolor" : [ 0.870588235294118, 0.023529411764706, 0.023529411764706, 1.0 ],
					"textjustification" : 1
				}

			}
, 			{
				"box" : 				{
					"fontsize" : 20.0,
					"id" : "obj-99",
					"linecount" : 2,
					"maxclass" : "comment",
					"numinlets" : 1,
					"numoutlets" : 0,
					"patching_rect" : [ 487.0, 443.0, 57.0, 52.0 ],
					"presentation" : 1,
					"presentation_linecount" : 2,
					"presentation_rect" : [ 1853.0, 102.0, 57.0, 52.0 ],
					"text" : "D#/\nEb",
					"textcolor" : [ 0.870588235294118, 0.023529411764706, 0.023529411764706, 1.0 ],
					"textjustification" : 1
				}

			}
, 			{
				"box" : 				{
					"fontsize" : 20.0,
					"id" : "obj-100",
					"linecount" : 2,
					"maxclass" : "comment",
					"numinlets" : 1,
					"numoutlets" : 0,
					"patching_rect" : [ 426.0, 443.0, 57.0, 52.0 ],
					"presentation" : 1,
					"presentation_linecount" : 2,
					"presentation_rect" : [ 1772.0, 102.0, 57.0, 52.0 ],
					"text" : "C#/\nDb",
					"textcolor" : [ 0.870588235294118, 0.023529411764706, 0.023529411764706, 1.0 ],
					"textjustification" : 1
				}

			}
, 			{
				"box" : 				{
					"fontsize" : 36.0,
					"id" : "obj-101",
					"maxclass" : "comment",
					"numinlets" : 1,
					"numoutlets" : 0,
					"patching_rect" : [ 768.0, 556.0, 47.0, 48.0 ],
					"presentation" : 1,
					"presentation_rect" : [ 2223.0, 257.0, 47.0, 48.0 ],
					"text" : "B",
					"textcolor" : [ 0.870588235294118, 0.023529411764706, 0.023529411764706, 1.0 ],
					"textjustification" : 1
				}

			}
, 			{
				"box" : 				{
					"fontsize" : 36.0,
					"id" : "obj-102",
					"maxclass" : "comment",
					"numinlets" : 1,
					"numoutlets" : 0,
					"patching_rect" : [ 706.0, 556.0, 47.0, 48.0 ],
					"presentation" : 1,
					"presentation_rect" : [ 2143.0, 257.0, 47.0, 48.0 ],
					"text" : "A",
					"textcolor" : [ 0.870588235294118, 0.023529411764706, 0.023529411764706, 1.0 ],
					"textjustification" : 1
				}

			}
, 			{
				"box" : 				{
					"fontsize" : 36.0,
					"id" : "obj-103",
					"maxclass" : "comment",
					"numinlets" : 1,
					"numoutlets" : 0,
					"patching_rect" : [ 645.0, 556.0, 47.0, 48.0 ],
					"presentation" : 1,
					"presentation_rect" : [ 2059.0, 257.0, 47.0, 48.0 ],
					"text" : "G",
					"textcolor" : [ 0.870588235294118, 0.023529411764706, 0.023529411764706, 1.0 ],
					"textjustification" : 1
				}

			}
, 			{
				"box" : 				{
					"fontsize" : 36.0,
					"id" : "obj-104",
					"maxclass" : "comment",
					"numinlets" : 1,
					"numoutlets" : 0,
					"patching_rect" : [ 583.0, 556.0, 47.0, 48.0 ],
					"presentation" : 1,
					"presentation_rect" : [ 1977.0, 257.0, 47.0, 48.0 ],
					"text" : "F",
					"textcolor" : [ 0.870588235294118, 0.023529411764706, 0.023529411764706, 1.0 ],
					"textjustification" : 1
				}

			}
, 			{
				"box" : 				{
					"fontsize" : 36.0,
					"id" : "obj-105",
					"maxclass" : "comment",
					"numinlets" : 1,
					"numoutlets" : 0,
					"patching_rect" : [ 522.0, 556.0, 47.0, 48.0 ],
					"presentation" : 1,
					"presentation_rect" : [ 1901.0, 257.0, 47.0, 48.0 ],
					"text" : "E",
					"textcolor" : [ 0.870588235294118, 0.023529411764706, 0.023529411764706, 1.0 ],
					"textjustification" : 1
				}

			}
, 			{
				"box" : 				{
					"fontsize" : 36.0,
					"id" : "obj-106",
					"maxclass" : "comment",
					"numinlets" : 1,
					"numoutlets" : 0,
					"patching_rect" : [ 464.0, 556.0, 47.0, 48.0 ],
					"presentation" : 1,
					"presentation_rect" : [ 1819.0, 257.0, 47.0, 48.0 ],
					"text" : "D",
					"textcolor" : [ 0.870588235294118, 0.023529411764706, 0.023529411764706, 1.0 ],
					"textjustification" : 1
				}

			}
, 			{
				"box" : 				{
					"fontsize" : 36.0,
					"id" : "obj-107",
					"maxclass" : "comment",
					"numinlets" : 1,
					"numoutlets" : 0,
					"patching_rect" : [ 401.0, 556.0, 47.0, 48.0 ],
					"presentation" : 1,
					"presentation_rect" : [ 1742.0, 257.0, 47.0, 48.0 ],
					"text" : "C",
					"textcolor" : [ 0.870588235294118, 0.023529411764706, 0.023529411764706, 1.0 ],
					"textjustification" : 1
				}

			}
, 			{
				"box" : 				{
					"fontsize" : 20.0,
					"id" : "obj-84",
					"linecount" : 2,
					"maxclass" : "comment",
					"numinlets" : 1,
					"numoutlets" : 0,
					"patching_rect" : [ 717.0, 428.0, 57.0, 52.0 ],
					"presentation" : 1,
					"presentation_linecount" : 2,
					"presentation_rect" : [ 1612.0, 102.0, 57.0, 52.0 ],
					"text" : "A#/\nBb",
					"textcolor" : [ 0.870588235294118, 0.023529411764706, 0.023529411764706, 1.0 ],
					"textjustification" : 1
				}

			}
, 			{
				"box" : 				{
					"fontsize" : 20.0,
					"id" : "obj-85",
					"linecount" : 2,
					"maxclass" : "comment",
					"numinlets" : 1,
					"numoutlets" : 0,
					"patching_rect" : [ 656.0, 428.0, 57.0, 52.0 ],
					"presentation" : 1,
					"presentation_linecount" : 2,
					"presentation_rect" : [ 1529.0, 102.0, 57.0, 52.0 ],
					"text" : "G#/\nAb",
					"textcolor" : [ 0.870588235294118, 0.023529411764706, 0.023529411764706, 1.0 ],
					"textjustification" : 1
				}

			}
, 			{
				"box" : 				{
					"fontsize" : 20.0,
					"id" : "obj-86",
					"linecount" : 2,
					"maxclass" : "comment",
					"numinlets" : 1,
					"numoutlets" : 0,
					"patching_rect" : [ 594.0, 428.0, 57.0, 52.0 ],
					"presentation" : 1,
					"presentation_linecount" : 2,
					"presentation_rect" : [ 1450.0, 102.0, 57.0, 52.0 ],
					"text" : "F#/\nGb",
					"textcolor" : [ 0.870588235294118, 0.023529411764706, 0.023529411764706, 1.0 ],
					"textjustification" : 1
				}

			}
, 			{
				"box" : 				{
					"fontsize" : 20.0,
					"id" : "obj-87",
					"linecount" : 2,
					"maxclass" : "comment",
					"numinlets" : 1,
					"numoutlets" : 0,
					"patching_rect" : [ 472.0, 428.0, 57.0, 52.0 ],
					"presentation" : 1,
					"presentation_linecount" : 2,
					"presentation_rect" : [ 1288.0, 102.0, 57.0, 52.0 ],
					"text" : "D#/\nEb",
					"textcolor" : [ 0.870588235294118, 0.023529411764706, 0.023529411764706, 1.0 ],
					"textjustification" : 1
				}

			}
, 			{
				"box" : 				{
					"fontsize" : 20.0,
					"id" : "obj-88",
					"linecount" : 2,
					"maxclass" : "comment",
					"numinlets" : 1,
					"numoutlets" : 0,
					"patching_rect" : [ 411.0, 428.0, 57.0, 52.0 ],
					"presentation" : 1,
					"presentation_linecount" : 2,
					"presentation_rect" : [ 1207.0, 102.0, 57.0, 52.0 ],
					"text" : "C#/\nDb",
					"textcolor" : [ 0.870588235294118, 0.023529411764706, 0.023529411764706, 1.0 ],
					"textjustification" : 1
				}

			}
, 			{
				"box" : 				{
					"fontsize" : 36.0,
					"id" : "obj-89",
					"maxclass" : "comment",
					"numinlets" : 1,
					"numoutlets" : 0,
					"patching_rect" : [ 753.0, 541.0, 47.0, 48.0 ],
					"presentation" : 1,
					"presentation_rect" : [ 1658.0, 257.0, 47.0, 48.0 ],
					"text" : "B",
					"textcolor" : [ 0.870588235294118, 0.023529411764706, 0.023529411764706, 1.0 ],
					"textjustification" : 1
				}

			}
, 			{
				"box" : 				{
					"fontsize" : 36.0,
					"id" : "obj-90",
					"maxclass" : "comment",
					"numinlets" : 1,
					"numoutlets" : 0,
					"patching_rect" : [ 691.0, 541.0, 47.0, 48.0 ],
					"presentation" : 1,
					"presentation_rect" : [ 1578.0, 257.0, 47.0, 48.0 ],
					"text" : "A",
					"textcolor" : [ 0.870588235294118, 0.023529411764706, 0.023529411764706, 1.0 ],
					"textjustification" : 1
				}

			}
, 			{
				"box" : 				{
					"fontsize" : 36.0,
					"id" : "obj-91",
					"maxclass" : "comment",
					"numinlets" : 1,
					"numoutlets" : 0,
					"patching_rect" : [ 630.0, 541.0, 47.0, 48.0 ],
					"presentation" : 1,
					"presentation_rect" : [ 1494.0, 257.0, 47.0, 48.0 ],
					"text" : "G",
					"textcolor" : [ 0.870588235294118, 0.023529411764706, 0.023529411764706, 1.0 ],
					"textjustification" : 1
				}

			}
, 			{
				"box" : 				{
					"fontsize" : 36.0,
					"id" : "obj-92",
					"maxclass" : "comment",
					"numinlets" : 1,
					"numoutlets" : 0,
					"patching_rect" : [ 568.0, 541.0, 47.0, 48.0 ],
					"presentation" : 1,
					"presentation_rect" : [ 1412.0, 257.0, 47.0, 48.0 ],
					"text" : "F",
					"textcolor" : [ 0.870588235294118, 0.023529411764706, 0.023529411764706, 1.0 ],
					"textjustification" : 1
				}

			}
, 			{
				"box" : 				{
					"fontsize" : 36.0,
					"id" : "obj-93",
					"maxclass" : "comment",
					"numinlets" : 1,
					"numoutlets" : 0,
					"patching_rect" : [ 507.0, 541.0, 47.0, 48.0 ],
					"presentation" : 1,
					"presentation_rect" : [ 1336.0, 257.0, 47.0, 48.0 ],
					"text" : "E",
					"textcolor" : [ 0.870588235294118, 0.023529411764706, 0.023529411764706, 1.0 ],
					"textjustification" : 1
				}

			}
, 			{
				"box" : 				{
					"fontsize" : 36.0,
					"id" : "obj-94",
					"maxclass" : "comment",
					"numinlets" : 1,
					"numoutlets" : 0,
					"patching_rect" : [ 449.0, 541.0, 47.0, 48.0 ],
					"presentation" : 1,
					"presentation_rect" : [ 1254.0, 257.0, 47.0, 48.0 ],
					"text" : "D",
					"textcolor" : [ 0.870588235294118, 0.023529411764706, 0.023529411764706, 1.0 ],
					"textjustification" : 1
				}

			}
, 			{
				"box" : 				{
					"fontsize" : 36.0,
					"id" : "obj-95",
					"maxclass" : "comment",
					"numinlets" : 1,
					"numoutlets" : 0,
					"patching_rect" : [ 386.0, 541.0, 47.0, 48.0 ],
					"presentation" : 1,
					"presentation_rect" : [ 1177.0, 257.0, 47.0, 48.0 ],
					"text" : "C",
					"textcolor" : [ 0.870588235294118, 0.023529411764706, 0.023529411764706, 1.0 ],
					"textjustification" : 1
				}

			}
, 			{
				"box" : 				{
					"fontsize" : 20.0,
					"id" : "obj-72",
					"linecount" : 2,
					"maxclass" : "comment",
					"numinlets" : 1,
					"numoutlets" : 0,
					"patching_rect" : [ 702.0, 413.0, 57.0, 52.0 ],
					"presentation" : 1,
					"presentation_linecount" : 2,
					"presentation_rect" : [ 1044.0, 102.0, 57.0, 52.0 ],
					"text" : "A#/\nBb",
					"textcolor" : [ 0.870588235294118, 0.023529411764706, 0.023529411764706, 1.0 ],
					"textjustification" : 1
				}

			}
, 			{
				"box" : 				{
					"fontsize" : 20.0,
					"id" : "obj-73",
					"linecount" : 2,
					"maxclass" : "comment",
					"numinlets" : 1,
					"numoutlets" : 0,
					"patching_rect" : [ 641.0, 413.0, 57.0, 52.0 ],
					"presentation" : 1,
					"presentation_linecount" : 2,
					"presentation_rect" : [ 961.0, 102.0, 57.0, 52.0 ],
					"text" : "G#/\nAb",
					"textcolor" : [ 0.870588235294118, 0.023529411764706, 0.023529411764706, 1.0 ],
					"textjustification" : 1
				}

			}
, 			{
				"box" : 				{
					"fontsize" : 20.0,
					"id" : "obj-74",
					"linecount" : 2,
					"maxclass" : "comment",
					"numinlets" : 1,
					"numoutlets" : 0,
					"patching_rect" : [ 579.0, 413.0, 57.0, 52.0 ],
					"presentation" : 1,
					"presentation_linecount" : 2,
					"presentation_rect" : [ 882.0, 102.0, 57.0, 52.0 ],
					"text" : "F#/\nGb",
					"textcolor" : [ 0.870588235294118, 0.023529411764706, 0.023529411764706, 1.0 ],
					"textjustification" : 1
				}

			}
, 			{
				"box" : 				{
					"fontsize" : 20.0,
					"id" : "obj-75",
					"linecount" : 2,
					"maxclass" : "comment",
					"numinlets" : 1,
					"numoutlets" : 0,
					"patching_rect" : [ 457.0, 413.0, 57.0, 52.0 ],
					"presentation" : 1,
					"presentation_linecount" : 2,
					"presentation_rect" : [ 720.0, 102.0, 57.0, 52.0 ],
					"text" : "D#/\nEb",
					"textcolor" : [ 0.870588235294118, 0.023529411764706, 0.023529411764706, 1.0 ],
					"textjustification" : 1
				}

			}
, 			{
				"box" : 				{
					"fontsize" : 20.0,
					"id" : "obj-76",
					"linecount" : 2,
					"maxclass" : "comment",
					"numinlets" : 1,
					"numoutlets" : 0,
					"patching_rect" : [ 396.0, 413.0, 57.0, 52.0 ],
					"presentation" : 1,
					"presentation_linecount" : 2,
					"presentation_rect" : [ 639.0, 102.0, 57.0, 52.0 ],
					"text" : "C#/\nDb",
					"textcolor" : [ 0.870588235294118, 0.023529411764706, 0.023529411764706, 1.0 ],
					"textjustification" : 1
				}

			}
, 			{
				"box" : 				{
					"fontsize" : 36.0,
					"id" : "obj-77",
					"maxclass" : "comment",
					"numinlets" : 1,
					"numoutlets" : 0,
					"patching_rect" : [ 738.0, 526.0, 47.0, 48.0 ],
					"presentation" : 1,
					"presentation_rect" : [ 1090.0, 257.0, 47.0, 48.0 ],
					"text" : "B",
					"textcolor" : [ 0.870588235294118, 0.023529411764706, 0.023529411764706, 1.0 ],
					"textjustification" : 1
				}

			}
, 			{
				"box" : 				{
					"fontsize" : 36.0,
					"id" : "obj-78",
					"maxclass" : "comment",
					"numinlets" : 1,
					"numoutlets" : 0,
					"patching_rect" : [ 676.0, 526.0, 47.0, 48.0 ],
					"presentation" : 1,
					"presentation_rect" : [ 1010.0, 257.0, 47.0, 48.0 ],
					"text" : "A",
					"textcolor" : [ 0.870588235294118, 0.023529411764706, 0.023529411764706, 1.0 ],
					"textjustification" : 1
				}

			}
, 			{
				"box" : 				{
					"fontsize" : 36.0,
					"id" : "obj-79",
					"maxclass" : "comment",
					"numinlets" : 1,
					"numoutlets" : 0,
					"patching_rect" : [ 615.0, 526.0, 47.0, 48.0 ],
					"presentation" : 1,
					"presentation_rect" : [ 926.0, 257.0, 47.0, 48.0 ],
					"text" : "G",
					"textcolor" : [ 0.870588235294118, 0.023529411764706, 0.023529411764706, 1.0 ],
					"textjustification" : 1
				}

			}
, 			{
				"box" : 				{
					"fontsize" : 36.0,
					"id" : "obj-80",
					"maxclass" : "comment",
					"numinlets" : 1,
					"numoutlets" : 0,
					"patching_rect" : [ 553.0, 526.0, 47.0, 48.0 ],
					"presentation" : 1,
					"presentation_rect" : [ 844.0, 257.0, 47.0, 48.0 ],
					"text" : "F",
					"textcolor" : [ 0.870588235294118, 0.023529411764706, 0.023529411764706, 1.0 ],
					"textjustification" : 1
				}

			}
, 			{
				"box" : 				{
					"fontsize" : 36.0,
					"id" : "obj-81",
					"maxclass" : "comment",
					"numinlets" : 1,
					"numoutlets" : 0,
					"patching_rect" : [ 492.0, 526.0, 47.0, 48.0 ],
					"presentation" : 1,
					"presentation_rect" : [ 768.0, 257.0, 47.0, 48.0 ],
					"text" : "E",
					"textcolor" : [ 0.870588235294118, 0.023529411764706, 0.023529411764706, 1.0 ],
					"textjustification" : 1
				}

			}
, 			{
				"box" : 				{
					"fontsize" : 36.0,
					"id" : "obj-82",
					"maxclass" : "comment",
					"numinlets" : 1,
					"numoutlets" : 0,
					"patching_rect" : [ 434.0, 526.0, 47.0, 48.0 ],
					"presentation" : 1,
					"presentation_rect" : [ 686.0, 257.0, 47.0, 48.0 ],
					"text" : "D",
					"textcolor" : [ 0.870588235294118, 0.023529411764706, 0.023529411764706, 1.0 ],
					"textjustification" : 1
				}

			}
, 			{
				"box" : 				{
					"fontsize" : 36.0,
					"id" : "obj-83",
					"maxclass" : "comment",
					"numinlets" : 1,
					"numoutlets" : 0,
					"patching_rect" : [ 371.0, 526.0, 47.0, 48.0 ],
					"presentation" : 1,
					"presentation_rect" : [ 609.0, 257.0, 47.0, 48.0 ],
					"text" : "C",
					"textcolor" : [ 0.870588235294118, 0.023529411764706, 0.023529411764706, 1.0 ],
					"textjustification" : 1
				}

			}
, 			{
				"box" : 				{
					"fontsize" : 20.0,
					"id" : "obj-60",
					"linecount" : 2,
					"maxclass" : "comment",
					"numinlets" : 1,
					"numoutlets" : 0,
					"patching_rect" : [ 687.0, 398.0, 57.0, 52.0 ],
					"presentation" : 1,
					"presentation_linecount" : 2,
					"presentation_rect" : [ 478.0, 102.0, 57.0, 52.0 ],
					"text" : "A#/\nBb",
					"textcolor" : [ 0.870588235294118, 0.023529411764706, 0.023529411764706, 1.0 ],
					"textjustification" : 1
				}

			}
, 			{
				"box" : 				{
					"fontsize" : 20.0,
					"id" : "obj-61",
					"linecount" : 2,
					"maxclass" : "comment",
					"numinlets" : 1,
					"numoutlets" : 0,
					"patching_rect" : [ 626.0, 398.0, 57.0, 52.0 ],
					"presentation" : 1,
					"presentation_linecount" : 2,
					"presentation_rect" : [ 395.0, 102.0, 57.0, 52.0 ],
					"text" : "G#/\nAb",
					"textcolor" : [ 0.870588235294118, 0.023529411764706, 0.023529411764706, 1.0 ],
					"textjustification" : 1
				}

			}
, 			{
				"box" : 				{
					"fontsize" : 20.0,
					"id" : "obj-62",
					"linecount" : 2,
					"maxclass" : "comment",
					"numinlets" : 1,
					"numoutlets" : 0,
					"patching_rect" : [ 564.0, 398.0, 57.0, 52.0 ],
					"presentation" : 1,
					"presentation_linecount" : 2,
					"presentation_rect" : [ 316.0, 102.0, 57.0, 52.0 ],
					"text" : "F#/\nGb",
					"textcolor" : [ 0.870588235294118, 0.023529411764706, 0.023529411764706, 1.0 ],
					"textjustification" : 1
				}

			}
, 			{
				"box" : 				{
					"fontsize" : 20.0,
					"id" : "obj-63",
					"linecount" : 2,
					"maxclass" : "comment",
					"numinlets" : 1,
					"numoutlets" : 0,
					"patching_rect" : [ 442.0, 398.0, 57.0, 52.0 ],
					"presentation" : 1,
					"presentation_linecount" : 2,
					"presentation_rect" : [ 154.0, 102.0, 57.0, 52.0 ],
					"text" : "D#/\nEb",
					"textcolor" : [ 0.870588235294118, 0.023529411764706, 0.023529411764706, 1.0 ],
					"textjustification" : 1
				}

			}
, 			{
				"box" : 				{
					"fontsize" : 20.0,
					"id" : "obj-64",
					"linecount" : 2,
					"maxclass" : "comment",
					"numinlets" : 1,
					"numoutlets" : 0,
					"patching_rect" : [ 381.0, 398.0, 57.0, 52.0 ],
					"presentation" : 1,
					"presentation_linecount" : 2,
					"presentation_rect" : [ 73.0, 102.0, 57.0, 52.0 ],
					"text" : "C#/\nDb",
					"textcolor" : [ 0.870588235294118, 0.023529411764706, 0.023529411764706, 1.0 ],
					"textjustification" : 1
				}

			}
, 			{
				"box" : 				{
					"fontsize" : 36.0,
					"id" : "obj-65",
					"maxclass" : "comment",
					"numinlets" : 1,
					"numoutlets" : 0,
					"patching_rect" : [ 723.0, 511.0, 47.0, 48.0 ],
					"presentation" : 1,
					"presentation_rect" : [ 524.0, 257.0, 47.0, 48.0 ],
					"text" : "B",
					"textcolor" : [ 0.870588235294118, 0.023529411764706, 0.023529411764706, 1.0 ],
					"textjustification" : 1
				}

			}
, 			{
				"box" : 				{
					"fontsize" : 36.0,
					"id" : "obj-66",
					"maxclass" : "comment",
					"numinlets" : 1,
					"numoutlets" : 0,
					"patching_rect" : [ 661.0, 511.0, 47.0, 48.0 ],
					"presentation" : 1,
					"presentation_rect" : [ 444.0, 257.0, 47.0, 48.0 ],
					"text" : "A",
					"textcolor" : [ 0.870588235294118, 0.023529411764706, 0.023529411764706, 1.0 ],
					"textjustification" : 1
				}

			}
, 			{
				"box" : 				{
					"fontsize" : 36.0,
					"id" : "obj-67",
					"maxclass" : "comment",
					"numinlets" : 1,
					"numoutlets" : 0,
					"patching_rect" : [ 600.0, 511.0, 47.0, 48.0 ],
					"presentation" : 1,
					"presentation_rect" : [ 360.0, 257.0, 47.0, 48.0 ],
					"text" : "G",
					"textcolor" : [ 0.870588235294118, 0.023529411764706, 0.023529411764706, 1.0 ],
					"textjustification" : 1
				}

			}
, 			{
				"box" : 				{
					"fontsize" : 36.0,
					"id" : "obj-68",
					"maxclass" : "comment",
					"numinlets" : 1,
					"numoutlets" : 0,
					"patching_rect" : [ 538.0, 511.0, 47.0, 48.0 ],
					"presentation" : 1,
					"presentation_rect" : [ 278.0, 257.0, 47.0, 48.0 ],
					"text" : "F",
					"textcolor" : [ 0.870588235294118, 0.023529411764706, 0.023529411764706, 1.0 ],
					"textjustification" : 1
				}

			}
, 			{
				"box" : 				{
					"fontsize" : 36.0,
					"id" : "obj-69",
					"maxclass" : "comment",
					"numinlets" : 1,
					"numoutlets" : 0,
					"patching_rect" : [ 477.0, 511.0, 47.0, 48.0 ],
					"presentation" : 1,
					"presentation_rect" : [ 202.0, 257.0, 47.0, 48.0 ],
					"text" : "E",
					"textcolor" : [ 0.870588235294118, 0.023529411764706, 0.023529411764706, 1.0 ],
					"textjustification" : 1
				}

			}
, 			{
				"box" : 				{
					"fontsize" : 36.0,
					"id" : "obj-70",
					"maxclass" : "comment",
					"numinlets" : 1,
					"numoutlets" : 0,
					"patching_rect" : [ 419.0, 511.0, 47.0, 48.0 ],
					"presentation" : 1,
					"presentation_rect" : [ 120.0, 257.0, 47.0, 48.0 ],
					"text" : "D",
					"textcolor" : [ 0.870588235294118, 0.023529411764706, 0.023529411764706, 1.0 ],
					"textjustification" : 1
				}

			}
, 			{
				"box" : 				{
					"fontsize" : 36.0,
					"id" : "obj-71",
					"maxclass" : "comment",
					"numinlets" : 1,
					"numoutlets" : 0,
					"patching_rect" : [ 356.0, 511.0, 47.0, 48.0 ],
					"presentation" : 1,
					"presentation_rect" : [ 43.0, 257.0, 47.0, 48.0 ],
					"text" : "C",
					"textcolor" : [ 0.870588235294118, 0.023529411764706, 0.023529411764706, 1.0 ],
					"textjustification" : 1
				}

			}
, 			{
				"box" : 				{
					"id" : "obj-4",
					"maxclass" : "nslider",
					"mode" : 1,
					"numinlets" : 2,
					"numoutlets" : 2,
					"outlettype" : [ "int", "int" ],
					"parameter_enable" : 0,
					"patching_rect" : [ 2291.0, 660.720000000000027, 193.0, 509.519999999999925 ],
					"presentation" : 1,
					"presentation_rect" : [ 2074.0, 337.720000000000027, 295.106060606060566, 779.0799999999997 ],
					"style" : "rnbohighcontrast"
				}

			}
, 			{
				"box" : 				{
					"id" : "obj-3",
					"maxclass" : "nslider",
					"mode" : 1,
					"numinlets" : 2,
					"numoutlets" : 2,
					"outlettype" : [ "int", "int" ],
					"parameter_enable" : 0,
					"patching_rect" : [ 1178.0, 666.720000000000027, 193.0, 509.519999999999925 ],
					"presentation" : 1,
					"presentation_rect" : [ 1052.0, 337.720000000000027, 297.0, 784.0799999999997 ],
					"style" : "rnbohighcontrast"
				}

			}
, 			{
				"box" : 				{
					"id" : "obj-2",
					"maxclass" : "nslider",
					"mode" : 1,
					"numinlets" : 2,
					"numoutlets" : 2,
					"outlettype" : [ "int", "int" ],
					"parameter_enable" : 0,
					"patching_rect" : [ 349.0, 660.720000000000027, 193.0, 509.519999999999925 ],
					"presentation" : 1,
					"presentation_rect" : [ 22.0, 337.720000000000027, 297.0, 784.0799999999997 ],
					"style" : "rnbohighcontrast"
				}

			}
, 			{
				"box" : 				{
					"fontsize" : 26.142938864364233,
					"id" : "obj-12",
					"maxclass" : "newobj",
					"numinlets" : 1,
					"numoutlets" : 0,
					"patching_rect" : [ 308.0, 212.0, 93.0, 39.0 ],
					"presentation" : 1,
					"presentation_rect" : [ 686.0, 357.732997185741112, 99.0, 39.0 ],
					"text" : "midiout"
				}

			}
, 			{
				"box" : 				{
					"id" : "obj-11",
					"maxclass" : "message",
					"numinlets" : 2,
					"numoutlets" : 1,
					"outlettype" : [ "" ],
					"patching_rect" : [ 35.0, 264.0, 50.0, 22.0 ],
					"text" : "48"
				}

			}
, 			{
				"box" : 				{
					"id" : "obj-7",
					"maxclass" : "newobj",
					"numinlets" : 1,
					"numoutlets" : 2,
					"outlettype" : [ "int", "int" ],
					"patching_rect" : [ 177.0, 288.0, 67.0, 22.0 ],
					"text" : "unpack 0 0"
				}

			}
, 			{
				"box" : 				{
					"id" : "obj-6",
					"maxclass" : "kslider",
					"mode" : 1,
					"numinlets" : 2,
					"numoutlets" : 2,
					"outlettype" : [ "int", "int" ],
					"parameter_enable" : 0,
					"patching_rect" : [ 349.0, 338.0, 1769.0, 239.0 ],
					"presentation" : 1,
					"presentation_rect" : [ 22.0, 10.0, 2349.0, 315.0 ],
					"range" : 49
				}

			}
, 			{
				"box" : 				{
					"id" : "obj-5",
					"maxclass" : "newobj",
					"numinlets" : 1,
					"numoutlets" : 8,
					"outlettype" : [ "", "", "", "int", "int", "", "int", "" ],
					"patching_rect" : [ 165.0, 245.0, 92.5, 22.0 ],
					"text" : "midiparse"
				}

			}
, 			{
				"box" : 				{
					"fontsize" : 25.593586874743778,
					"id" : "obj-1",
					"maxclass" : "newobj",
					"numinlets" : 1,
					"numoutlets" : 1,
					"outlettype" : [ "int" ],
					"patching_rect" : [ 165.0, 179.0, 75.0, 38.0 ],
					"presentation" : 1,
					"presentation_rect" : [ 598.0, 357.732997185741112, 84.0, 38.0 ],
					"text" : "midiin"
				}

			}
 ],
		"lines" : [ 			{
				"patchline" : 				{
					"destination" : [ "obj-12", 0 ],
					"order" : 0,
					"source" : [ "obj-1", 0 ]
				}

			}
, 			{
				"patchline" : 				{
					"destination" : [ "obj-5", 0 ],
					"order" : 1,
					"source" : [ "obj-1", 0 ]
				}

			}
, 			{
				"patchline" : 				{
					"destination" : [ "obj-7", 0 ],
					"source" : [ "obj-5", 0 ]
				}

			}
, 			{
				"patchline" : 				{
					"destination" : [ "obj-2", 1 ],
					"order" : 2,
					"source" : [ "obj-6", 1 ]
				}

			}
, 			{
				"patchline" : 				{
					"destination" : [ "obj-2", 0 ],
					"order" : 2,
					"source" : [ "obj-6", 0 ]
				}

			}
, 			{
				"patchline" : 				{
					"destination" : [ "obj-3", 1 ],
					"order" : 1,
					"source" : [ "obj-6", 1 ]
				}

			}
, 			{
				"patchline" : 				{
					"destination" : [ "obj-3", 0 ],
					"order" : 1,
					"source" : [ "obj-6", 0 ]
				}

			}
, 			{
				"patchline" : 				{
					"destination" : [ "obj-4", 1 ],
					"order" : 0,
					"source" : [ "obj-6", 1 ]
				}

			}
, 			{
				"patchline" : 				{
					"destination" : [ "obj-4", 0 ],
					"order" : 0,
					"source" : [ "obj-6", 0 ]
				}

			}
, 			{
				"patchline" : 				{
					"destination" : [ "obj-11", 1 ],
					"order" : 1,
					"source" : [ "obj-7", 0 ]
				}

			}
, 			{
				"patchline" : 				{
					"destination" : [ "obj-6", 1 ],
					"source" : [ "obj-7", 1 ]
				}

			}
, 			{
				"patchline" : 				{
					"destination" : [ "obj-6", 0 ],
					"order" : 0,
					"source" : [ "obj-7", 0 ]
				}

			}
 ],
		"dependency_cache" : [  ],
		"autosave" : 0,
		"styles" : [ 			{
				"name" : "rnbohighcontrast",
				"default" : 				{
					"accentcolor" : [ 0.666666666666667, 0.666666666666667, 0.666666666666667, 1.0 ],
					"bgcolor" : [ 0.0, 0.0, 0.0, 1.0 ],
					"bgfillcolor" : 					{
						"angle" : 270.0,
						"autogradient" : 0.0,
						"color" : [ 0.0, 0.0, 0.0, 1.0 ],
						"color1" : [ 0.090196078431373, 0.090196078431373, 0.090196078431373, 1.0 ],
						"color2" : [ 0.156862745098039, 0.168627450980392, 0.164705882352941, 1.0 ],
						"proportion" : 0.5,
						"type" : "color"
					}
,
					"clearcolor" : [ 1.0, 1.0, 1.0, 0.0 ],
					"color" : [ 1.0, 0.874509803921569, 0.141176470588235, 1.0 ],
					"editing_bgcolor" : [ 0.258823529411765, 0.258823529411765, 0.258823529411765, 1.0 ],
					"elementcolor" : [ 0.223386004567146, 0.254748553037643, 0.998085916042328, 1.0 ],
					"fontsize" : [ 13.0 ],
					"locked_bgcolor" : [ 0.258823529411765, 0.258823529411765, 0.258823529411765, 1.0 ],
					"selectioncolor" : [ 0.301960784313725, 0.694117647058824, 0.949019607843137, 1.0 ],
					"stripecolor" : [ 0.258823529411765, 0.258823529411765, 0.258823529411765, 1.0 ],
					"textcolor" : [ 1.0, 1.0, 1.0, 1.0 ],
					"textcolor_inverse" : [ 1.0, 1.0, 1.0, 1.0 ]
				}
,
				"parentstyle" : "",
				"multi" : 0
			}
 ]
	}

}
